<svg width="16" height="16" viewBox="0 0 16 16" fill="none" xmlns="http://www.w3.org/2000/svg">
<path d="M15.3333 14.6666H0.666667C0.298477 14.6666 0 14.3682 0 14V1.99998C0 1.63179 0.298477 1.33331 0.666667 1.33331C1.03486 1.33331 1.33333 1.63179 1.33333 1.99998V13.3333H15.3333C15.7015 13.3333 16 13.6318 16 14C16 14.3682 15.7015 14.6666 15.3333 14.6666Z" fill="#1E5B63"/>
<path fill-rule="evenodd" clip-rule="evenodd" d="M2 14C2 14.3681 2.29848 14.6666 2.66667 14.6666H5.33333C5.70152 14.6666 6 14.3681 6 14V10.6666C6 9.56206 5.10457 8.66663 4 8.66663C2.89543 8.66663 2 9.56206 2 10.6666V14ZM4.66667 10.6666V13.3333H3.33333V10.6666C3.33333 10.2984 3.63181 9.99996 4 9.99996C4.36819 9.99996 4.66667 10.2984 4.66667 10.6666Z" fill="#1E5B63"/>
<path fill-rule="evenodd" clip-rule="evenodd" d="M6.66666 14C6.66666 14.3682 6.96513 14.6667 7.33332 14.6667H9.99999C10.3682 14.6667 10.6667 14.3682 10.6667 14V8C10.6667 6.89543 9.77123 6 8.66666 6C7.56209 6 6.66666 6.89543 6.66666 8V14ZM9.33332 8V13.3333H7.99999V8C7.99999 7.63181 8.29847 7.33333 8.66666 7.33333C9.03485 7.33333 9.33332 7.63181 9.33332 8Z" fill="#1E5B63"/>
<path fill-rule="evenodd" clip-rule="evenodd" d="M11.3333 14C11.3333 14.3681 11.6318 14.6666 12 14.6666H14.6667C15.0349 14.6666 15.3333 14.3681 15.3333 14V4.66663C15.3333 3.56206 14.4379 2.66663 13.3333 2.66663C12.2288 2.66663 11.3333 3.56206 11.3333 4.66663V14ZM14 4.66663V13.3333H12.6667V4.66663C12.6667 4.29844 12.9652 3.99996 13.3333 3.99996C13.7015 3.99996 14 4.29844 14 4.66663Z" fill="#1E5B63"/>
</svg>
