<svg width="25" height="24" viewBox="0 0 25 24" fill="none" xmlns="http://www.w3.org/2000/svg">
<path fill-rule="evenodd" clip-rule="evenodd" d="M3 23H13C14.6569 23 16 21.6569 16 20V4C16 2.34315 14.6569 1 13 1H3C1.34315 1 0 2.34315 0 4V20C0 21.6569 1.34315 23 3 23ZM2 4C2 3.44772 2.44772 3 3 3H13C13.5523 3 14 3.44772 14 4V20C14 20.5523 13.5523 21 13 21H3C2.44772 21 2 20.5523 2 20V4Z" fill="black"/>
<path d="M11 19C10.7342 19.0015 10.4787 18.8972 10.29 18.71C10.1007 18.5222 9.9942 18.2666 9.9942 18C9.9942 17.7334 10.1007 17.4778 10.29 17.29L22.29 5.29C22.6821 4.89788 23.3179 4.89788 23.71 5.29C24.1021 5.68212 24.1021 6.31788 23.71 6.71L11.71 18.71C11.5213 18.8972 11.2658 19.0015 11 19Z" fill="black"/>
<path d="M12 7H4C3.44772 7 3 6.55228 3 6C3 5.44772 3.44772 5 4 5H12C12.5523 5 13 5.44772 13 6C13 6.55228 12.5523 7 12 7Z" fill="black"/>
<path d="M12 11H4C3.44772 11 3 10.5523 3 10C3 9.44772 3.44772 9 4 9H12C12.5523 9 13 9.44772 13 10C13 10.5523 12.5523 11 12 11Z" fill="black"/>
<path d="M12 15H4C3.44772 15 3 14.5523 3 14C3 13.4477 3.44772 13 4 13H12C12.5523 13 13 13.4477 13 14C13 14.5523 12.5523 15 12 15Z" fill="black"/>
<path d="M11 19H4C3.44772 19 3 18.5523 3 18C3 17.4477 3.44772 17 4 17H11C11.5523 17 12 17.4477 12 18C12 18.5523 11.5523 19 11 19Z" fill="black"/>
</svg>
