<svg width="29" height="26" viewBox="0 0 29 26" fill="none" xmlns="http://www.w3.org/2000/svg">
<path fill-rule="evenodd" clip-rule="evenodd" d="M4.16663 18C4.16663 18.5523 4.633 19 5.20829 19H19.7916C20.3669 19 20.8333 18.5523 20.8333 18V11C20.8333 6.58172 17.1023 3 12.5 3C7.89759 3 4.16663 6.58172 4.16663 11V18ZM18.75 11V17H6.24996V11C6.24996 7.68629 9.04818 5 12.5 5C15.9517 5 18.75 7.68629 18.75 11Z" fill="#1E5B63"/>
<path d="M12.5 5C11.9247 5 11.4583 4.55228 11.4583 4V2C11.4583 1.44772 11.9247 1 12.5 1C13.0753 1 13.5416 1.44772 13.5416 2V4C13.5416 4.55228 13.0753 5 12.5 5Z" fill="#1E5B63"/>
<path d="M21.875 19H3.12498C2.54968 19 2.08331 18.5523 2.08331 18C2.08331 17.4477 2.54968 17 3.12498 17H21.875C22.4503 17 22.9166 17.4477 22.9166 18C22.9166 18.5523 22.4503 19 21.875 19Z" fill="#1E5B63"/>
<path fill-rule="evenodd" clip-rule="evenodd" d="M9.375 20C9.375 21.6569 10.7741 23 12.5 23C14.2259 23 15.625 21.6569 15.625 20C15.625 18.3431 14.2259 17 12.5 17C10.7741 17 9.375 18.3431 9.375 20ZM11.4583 20C11.4583 19.4477 11.9247 19 12.5 19C13.0753 19 13.5417 19.4477 13.5417 20C13.5417 20.5523 13.0753 21 12.5 21C11.9247 21 11.4583 20.5523 11.4583 20Z" fill="#1E5B63"/>
<ellipse cx="20.8337" cy="19" rx="7.29167" ry="7" fill="#FF5252"/>
<path d="M19.6373 17.835H20.3893C20.6302 17.835 20.8287 17.7943 20.985 17.7129C21.1412 17.6283 21.2568 17.5111 21.3317 17.3613C21.4098 17.2083 21.4489 17.0309 21.4489 16.8291C21.4489 16.6468 21.413 16.4857 21.3414 16.3457C21.2731 16.2025 21.1673 16.0918 21.024 16.0137C20.8808 15.9323 20.7002 15.8916 20.4821 15.8916C20.3095 15.8916 20.15 15.9258 20.0035 15.9941C19.8571 16.0625 19.7399 16.1585 19.652 16.2822C19.5641 16.4059 19.5201 16.5557 19.5201 16.7314H18.109C18.109 16.3408 18.2132 16.0007 18.4215 15.7109C18.6331 15.4212 18.9163 15.195 19.2711 15.0322C19.6259 14.8695 20.0166 14.7881 20.443 14.7881C20.9248 14.7881 21.3463 14.8662 21.7076 15.0225C22.069 15.1755 22.3505 15.4017 22.5524 15.7012C22.7542 16.0007 22.8551 16.3717 22.8551 16.8145C22.8551 17.0391 22.803 17.2572 22.6989 17.4688C22.5947 17.6771 22.4449 17.8659 22.2496 18.0352C22.0576 18.2012 21.8232 18.3346 21.5465 18.4355C21.2698 18.5332 20.9589 18.582 20.6139 18.582H19.6373V17.835ZM19.6373 18.9043V18.1768H20.6139C21.0013 18.1768 21.3414 18.2207 21.6344 18.3086C21.9274 18.3965 22.1731 18.5234 22.3717 18.6895C22.5703 18.8522 22.72 19.0459 22.8209 19.2705C22.9218 19.4919 22.9723 19.7376 22.9723 20.0078C22.9723 20.3398 22.9088 20.6361 22.7819 20.8965C22.6549 21.1536 22.4759 21.3717 22.2448 21.5508C22.0169 21.7298 21.75 21.8665 21.444 21.9609C21.138 22.0521 20.8043 22.0977 20.443 22.0977C20.1435 22.0977 19.8489 22.057 19.5592 21.9756C19.2727 21.891 19.0123 21.7656 18.778 21.5996C18.5468 21.4303 18.3613 21.2188 18.2213 20.9648C18.0846 20.7077 18.0162 20.4033 18.0162 20.0518H19.4274C19.4274 20.234 19.4729 20.3968 19.5641 20.54C19.6552 20.6833 19.7806 20.7956 19.9401 20.877C20.1028 20.9583 20.2835 20.999 20.4821 20.999C20.7067 20.999 20.8987 20.9583 21.0582 20.877C21.221 20.7923 21.3447 20.6751 21.4293 20.5254C21.5172 20.3724 21.5612 20.195 21.5612 19.9932C21.5612 19.7327 21.514 19.5244 21.4196 19.3682C21.3252 19.2087 21.1901 19.0915 21.0143 19.0166C20.8385 18.9417 20.6302 18.9043 20.3893 18.9043H19.6373Z" fill="white"/>
</svg>
