<svg width="16" height="16" viewBox="0 0 16 16" fill="none" xmlns="http://www.w3.org/2000/svg">
<path fill-rule="evenodd" clip-rule="evenodd" d="M0.666656 8.00002C0.666656 12.0501 3.9499 15.3334 7.99999 15.3334C9.94491 15.3334 11.8102 14.5607 13.1854 13.1855C14.5607 11.8102 15.3333 9.94494 15.3333 8.00002C15.3333 3.94993 12.0501 0.666687 7.99999 0.666687C3.9499 0.666687 0.666656 3.94993 0.666656 8.00002ZM1.99999 8.00002C1.99999 4.68631 4.68628 2.00002 7.99999 2.00002C11.3137 2.00002 14 4.68631 14 8.00002C14 11.3137 11.3137 14 7.99999 14C4.68628 14 1.99999 11.3137 1.99999 8.00002Z" fill="#1E5B63"/>
<path fill-rule="evenodd" clip-rule="evenodd" d="M5.67998 11.9133C5.77653 11.9714 5.88734 12.0014 5.99998 12C6.1248 12.0004 6.24722 11.9657 6.35331 11.9L11.6866 8.56666C11.8828 8.4451 12.0021 8.23075 12.0021 7.99999C12.0021 7.76924 11.8828 7.55489 11.6866 7.43333L6.35331 4.09999C6.1476 3.97142 5.88828 3.96474 5.67622 4.08255C5.46416 4.20036 5.33283 4.42407 5.33331 4.66666V11.3333C5.33508 11.5752 5.46775 11.7972 5.67998 11.9133ZM10.0733 7.99999L6.66665 10.1333V5.86666L10.0733 7.99999Z" fill="#1E5B63"/>
</svg>
