<svg width="14" height="14" viewBox="0 0 14 14" fill="none" xmlns="http://www.w3.org/2000/svg">
<path fill-rule="evenodd" clip-rule="evenodd" d="M0.333344 6.99998C0.333344 10.6819 3.31811 13.6666 7.00001 13.6666C10.6819 13.6666 13.6667 10.6819 13.6667 6.99998C13.6667 3.31808 10.6819 0.333313 7.00001 0.333313C3.31811 0.333313 0.333344 3.31808 0.333344 6.99998ZM1.66668 6.99998C1.66668 4.05446 4.05449 1.66665 7.00001 1.66665C8.4145 1.66665 9.77105 2.22855 10.7712 3.22874C11.7714 4.22894 12.3333 5.58549 12.3333 6.99998C12.3333 9.9455 9.94553 12.3333 7.00001 12.3333C4.05449 12.3333 1.66668 9.9455 1.66668 6.99998Z" fill="#1E5B63"/>
<path d="M5.66669 8.99998C5.48948 9.001 5.31917 8.93144 5.19335 8.80665C5.06715 8.68147 4.99615 8.51107 4.99615 8.33331C4.99615 8.15555 5.06715 7.98516 5.19335 7.85998L6.33335 6.72665V2.99998C6.33335 2.63179 6.63183 2.33331 7.00002 2.33331C7.36821 2.33331 7.66669 2.63179 7.66669 2.99998V6.99998C7.66771 7.17718 7.59814 7.3475 7.47335 7.47331L6.14002 8.80665C6.01421 8.93144 5.84389 9.001 5.66669 8.99998Z" fill="#1E5B63"/>
</svg>
